<svg xmlns="http://www.w3.org/2000/svg" viewBox="0 0 24 24">
  <path
    d="M12 0a12 12 0 0 0-9.26 19.64C9.91 28.29 24 23.21 24 12A12 12 0 0 0 12 0zm8.39 17.44A11.82 11.82 0 0 0 16.83 15a27.47 27.47 0 0 0 0-6.08 11.82 11.82 0 0 0 3.56-2.4 10 10 0 0 1 0 10.92zm-4.78 3.87c-1 .4.16.2.95-4.21a10 10 0 0 1 2.58 1.9 9.81 9.81 0 0 1-3.53 2.31zm-3.68.69c-.75-.1-2-1.94-2.58-5.65a10.35 10.35 0 0 1 5.3 0c-.24 1.48-1.22 5.65-2.72 5.65zm-3.54-.69A9.9 9.9 0 0 1 4.86 19a10 10 0 0 1 2.58-1.9c.81 4.51 2.02 4.63.95 4.21zm0-18.64c.86-.33-.25 0-1 4.23A10 10 0 0 1 4.86 5a9.79 9.79 0 0 1 3.58-2.33zm7.12 0A9.87 9.87 0 0 1 19.14 5a10 10 0 0 1-2.58 1.9c-.8-4.46-1.97-4.61-1-4.23zm-6.4 11.69a25.66 25.66 0 0 1 0-4.72 11.78 11.78 0 0 0 5.78 0 24.81 24.81 0 0 1 0 4.72 12.28 12.28 0 0 0-5.78 0zM11.91 2c1.51 0 2.5 4.16 2.74 5.65a10.35 10.35 0 0 1-5.3 0C10 4 11.17 2.12 11.91 2zm-8.3 4.56A11.82 11.82 0 0 0 7.17 9a27.47 27.47 0 0 0 0 6.08 11.82 11.82 0 0 0-3.56 2.4 10 10 0 0 1 0-10.92z" />
</svg>